<mxfile host="app.diagrams.net" modified="2024-01-23T00:09:34.342Z" agent="Mozilla/5.0 (X11; Linux x86_64; rv:109.0) Gecko/20100101 Firefox/113.0" version="22.1.21" etag="0drAb5JxKw3ApHGO7kVi" type="github">
  <diagram name="PÃ¡gina-1" id="YMAOkZUHnQomOHNwgcCV">
    <mxGraphModel>
      <root>
        <mxCell id="0" />
        <mxCell id="1" parent="0" />
      </root>
    </mxGraphModel>
  </diagram>
</mxfile>
